<?xml version="1.0" standalone="no"?>
<!DOCTYPE svg PUBLIC "-//W3C//DTD SVG 20010904//EN"
 "http://www.w3.org/TR/2001/REC-SVG-20010904/DTD/svg10.dtd">
<svg version="1.0" xmlns="http://www.w3.org/2000/svg"
 width="512.000000pt" height="512.000000pt" viewBox="0 0 512.000000 512.000000"
 preserveAspectRatio="xMidYMid meet">
<metadata>
Created by potrace 1.14, written by Peter Selinger 2001-2017
</metadata>
<g transform="translate(0.000000,512.000000) scale(0.100000,-0.100000)"
fill="#000000" stroke="none">
<path d="M1814 4450 c-117 -30 -247 -105 -390 -224 -34 -28 -87 -71 -117 -95
-93 -72 -242 -233 -305 -328 -120 -184 -172 -375 -172 -640 0 -119 16 -341 30
-398 5 -22 17 -109 26 -193 18 -166 17 -171 -33 -172 -37 0 -36 -19 5 -65 81
-93 108 -244 57 -320 -23 -33 -24 -39 -11 -54 8 -9 24 -40 35 -69 19 -48 21
-74 21 -275 l0 -222 93 -28 c50 -15 114 -28 141 -27 l48 0 -5 -127 c-3 -93
-11 -147 -27 -197 l-22 -69 24 -19 c87 -68 238 -99 307 -64 32 17 71 80 57 93
-4 4 -51 10 -104 13 -53 3 -103 9 -111 14 -15 10 -11 86 12 250 l12 90 46 11
c25 7 108 15 183 19 l137 8 -7 -209 c-4 -143 -3 -217 5 -236 16 -42 87 -70
191 -75 82 -4 87 -3 118 23 24 20 32 35 32 61 l0 33 -112 3 -113 3 -3 115 c-3
111 20 293 38 314 5 5 89 5 189 1 l181 -7 0 -227 0 -226 78 -22 c189 -54 262
-33 250 73 -3 29 -3 29 -87 34 l-85 5 -9 35 c-12 46 -3 276 12 316 l12 31 164
13 c90 7 168 9 174 6 22 -14 31 -87 31 -249 0 -150 2 -168 18 -174 9 -4 99 -7
199 -8 178 0 182 0 207 24 31 29 35 76 9 89 -10 5 -76 12 -147 15 -71 4 -132
9 -135 13 -3 3 -6 69 -6 147 l0 141 85 22 c47 13 108 26 137 29 62 9 61 5 69
200 4 99 1 190 -11 310 -9 94 -19 249 -22 347 l-5 176 33 30 c20 17 40 49 49
77 17 56 44 73 156 105 210 60 548 -18 801 -186 58 -39 69 -40 121 -19 169 71
210 336 101 650 -29 86 -74 183 -101 218 -13 18 -16 17 -73 -8 -103 -46 -176
-71 -290 -101 -98 -25 -128 -28 -270 -28 -143 -1 -168 2 -234 23 -105 35 -187
99 -225 176 -25 49 -83 158 -150 280 -104 188 -323 437 -478 543 -143 98 -310
167 -460 192 -101 16 -292 11 -374 -10z"/>
</g>
</svg>
